<svg id="visual" viewBox="0 0 960 300" width="960" height="300" xmlns="http://www.w3.org/2000/svg" xmlns:xlink="http://www.w3.org/1999/xlink" version="1.1"><rect x="0" y="0" width="960" height="300" fill="#74c0fc"></rect><g transform="translate(481.96273237744197 141.79912229927962)"><path d="M75.6 -92.4C96.4 -89 110.5 -64.7 105.7 -43C100.9 -21.2 77.2 -1.9 63.9 15.1C50.6 32.1 47.6 46.8 38.7 60.7C29.8 74.7 14.9 87.8 -7.2 97.8C-29.4 107.8 -58.8 114.6 -76.8 103.6C-94.9 92.6 -101.7 63.9 -106.2 37.5C-110.6 11 -112.9 -13.2 -107.1 -36C-101.4 -58.9 -87.7 -80.4 -68.6 -84.4C-49.4 -88.3 -24.7 -74.6 1.4 -76.5C27.4 -78.4 54.9 -95.8 75.6 -92.4" fill="#339af0"></path></g></svg>