<svg id="visual" viewBox="0 0 960 300" width="960" height="300" xmlns="http://www.w3.org/2000/svg" xmlns:xlink="http://www.w3.org/1999/xlink" version="1.1"><rect x="0" y="0" width="960" height="300" fill="#74c0fc"></rect><g transform="translate(503.1332538464532 162.07893331913317)"><path d="M47.8 -79.7C58.5 -58.1 61.1 -39.4 66.1 -22C71 -4.5 78.3 11.6 73.2 22.7C68.1 33.7 50.6 39.6 36.3 54.6C22 69.7 11 93.8 -7.2 103.8C-25.5 113.7 -50.9 109.4 -64.6 94.2C-78.2 79 -80 52.8 -90.7 27.6C-101.4 2.5 -121.1 -21.6 -121.2 -44.9C-121.3 -68.2 -101.8 -90.8 -78.3 -108.1C-54.9 -125.5 -27.4 -137.8 -4.4 -131.7C18.6 -125.6 37.2 -101.2 47.8 -79.7" fill="#339af0"></path></g></svg>