<svg id="visual" viewBox="0 0 960 300" width="960" height="300" xmlns="http://www.w3.org/2000/svg" xmlns:xlink="http://www.w3.org/1999/xlink" version="1.1"><path d="M0 52L14.5 50.5C29 49 58 46 87.2 43C116.3 40 145.7 37 174.8 38.5C204 40 233 46 262 47.5C291 49 320 46 349 44C378 42 407 41 436.2 40.5C465.3 40 494.7 40 523.8 42.5C553 45 582 50 611 48C640 46 669 37 698 36C727 35 756 42 785.2 44C814.3 46 843.7 43 872.8 44.5C902 46 931 52 945.5 55L960 58L960 0L945.5 0C931 0 902 0 872.8 0C843.7 0 814.3 0 785.2 0C756 0 727 0 698 0C669 0 640 0 611 0C582 0 553 0 523.8 0C494.7 0 465.3 0 436.2 0C407 0 378 0 349 0C320 0 291 0 262 0C233 0 204 0 174.8 0C145.7 0 116.3 0 87.2 0C58 0 29 0 14.5 0L0 0Z" fill="#7db9f5"></path><path d="M0 160L14.5 158.5C29 157 58 154 87.2 141.5C116.3 129 145.7 107 174.8 106C204 105 233 125 262 134.5C291 144 320 143 349 139.5C378 136 407 130 436.2 133C465.3 136 494.7 148 523.8 153.5C553 159 582 158 611 153C640 148 669 139 698 129C727 119 756 108 785.2 112.5C814.3 117 843.7 137 872.8 142C902 147 931 137 945.5 132L960 127L960 56L945.5 53C931 50 902 44 872.8 42.5C843.7 41 814.3 44 785.2 42C756 40 727 33 698 34C669 35 640 44 611 46C582 48 553 43 523.8 40.5C494.7 38 465.3 38 436.2 38.5C407 39 378 40 349 42C320 44 291 47 262 45.5C233 44 204 38 174.8 36.5C145.7 35 116.3 38 87.2 41C58 44 29 47 14.5 48.5L0 50Z" fill="#5daaf3"></path><path d="M0 220L14.5 221.5C29 223 58 226 87.2 220C116.3 214 145.7 199 174.8 200.5C204 202 233 220 262 219.5C291 219 320 200 349 192C378 184 407 187 436.2 190C465.3 193 494.7 196 523.8 203C553 210 582 221 611 223.5C640 226 669 220 698 212.5C727 205 756 196 785.2 195.5C814.3 195 843.7 203 872.8 204.5C902 206 931 201 945.5 198.5L960 196L960 125L945.5 130C931 135 902 145 872.8 140C843.7 135 814.3 115 785.2 110.5C756 106 727 117 698 127C669 137 640 146 611 151C582 156 553 157 523.8 151.5C494.7 146 465.3 134 436.2 131C407 128 378 134 349 137.5C320 141 291 142 262 132.5C233 123 204 103 174.8 104C145.7 105 116.3 127 87.2 139.5C58 152 29 155 14.5 156.5L0 158Z" fill="#339af0"></path><path d="M0 274L14.5 270.5C29 267 58 260 87.2 257.5C116.3 255 145.7 257 174.8 258.5C204 260 233 261 262 260C291 259 320 256 349 256.5C378 257 407 261 436.2 261.5C465.3 262 494.7 259 523.8 257.5C553 256 582 256 611 256C640 256 669 256 698 255.5C727 255 756 254 785.2 256.5C814.3 259 843.7 265 872.8 266C902 267 931 263 945.5 261L960 259L960 194L945.5 196.5C931 199 902 204 872.8 202.5C843.7 201 814.3 193 785.2 193.5C756 194 727 203 698 210.5C669 218 640 224 611 221.5C582 219 553 208 523.8 201C494.7 194 465.3 191 436.2 188C407 185 378 182 349 190C320 198 291 217 262 217.5C233 218 204 200 174.8 198.5C145.7 197 116.3 212 87.2 218C58 224 29 221 14.5 219.5L0 218Z" fill="#2b85d1"></path><path d="M0 301L14.5 301C29 301 58 301 87.2 301C116.3 301 145.7 301 174.8 301C204 301 233 301 262 301C291 301 320 301 349 301C378 301 407 301 436.2 301C465.3 301 494.7 301 523.8 301C553 301 582 301 611 301C640 301 669 301 698 301C727 301 756 301 785.2 301C814.3 301 843.7 301 872.8 301C902 301 931 301 945.5 301L960 301L960 257L945.5 259C931 261 902 265 872.8 264C843.7 263 814.3 257 785.2 254.5C756 252 727 253 698 253.5C669 254 640 254 611 254C582 254 553 254 523.8 255.5C494.7 257 465.3 260 436.2 259.5C407 259 378 255 349 254.5C320 254 291 257 262 258C233 259 204 258 174.8 256.5C145.7 255 116.3 253 87.2 255.5C58 258 29 265 14.5 268.5L0 272Z" fill="#2371b3"></path></svg>