<svg id="visual" viewBox="0 0 960 300" width="960" height="300" xmlns="http://www.w3.org/2000/svg" xmlns:xlink="http://www.w3.org/1999/xlink" version="1.1"><rect x="0" y="0" width="960" height="300" fill="#001220"></rect><path d="M0 193L22.8 196.2C45.7 199.3 91.3 205.7 137 204.3C182.7 203 228.3 194 274 192C319.7 190 365.3 195 411.2 198.2C457 201.3 503 202.7 548.8 204.2C594.7 205.7 640.3 207.3 686 203C731.7 198.7 777.3 188.3 823 185.7C868.7 183 914.3 188 937.2 190.5L960 193L960 301L937.2 301C914.3 301 868.7 301 823 301C777.3 301 731.7 301 686 301C640.3 301 594.7 301 548.8 301C503 301 457 301 411.2 301C365.3 301 319.7 301 274 301C228.3 301 182.7 301 137 301C91.3 301 45.7 301 22.8 301L0 301Z" fill="#339af0"></path><path d="M0 220L22.8 216.5C45.7 213 91.3 206 137 203.7C182.7 201.3 228.3 203.7 274 207.7C319.7 211.7 365.3 217.3 411.2 217.7C457 218 503 213 548.8 209.5C594.7 206 640.3 204 686 206.7C731.7 209.3 777.3 216.7 823 219.7C868.7 222.7 914.3 221.3 937.2 220.7L960 220L960 301L937.2 301C914.3 301 868.7 301 823 301C777.3 301 731.7 301 686 301C640.3 301 594.7 301 548.8 301C503 301 457 301 411.2 301C365.3 301 319.7 301 274 301C228.3 301 182.7 301 137 301C91.3 301 45.7 301 22.8 301L0 301Z" fill="#2883d7"></path><path d="M0 239L22.8 238C45.7 237 91.3 235 137 233.8C182.7 232.7 228.3 232.3 274 230.7C319.7 229 365.3 226 411.2 228.7C457 231.3 503 239.7 548.8 240.2C594.7 240.7 640.3 233.3 686 231.3C731.7 229.3 777.3 232.7 823 235.2C868.7 237.7 914.3 239.3 937.2 240.2L960 241L960 301L937.2 301C914.3 301 868.7 301 823 301C777.3 301 731.7 301 686 301C640.3 301 594.7 301 548.8 301C503 301 457 301 411.2 301C365.3 301 319.7 301 274 301C228.3 301 182.7 301 137 301C91.3 301 45.7 301 22.8 301L0 301Z" fill="#1d6cbe"></path><path d="M0 249L22.8 250.2C45.7 251.3 91.3 253.7 137 257C182.7 260.3 228.3 264.7 274 265.3C319.7 266 365.3 263 411.2 258.5C457 254 503 248 548.8 246C594.7 244 640.3 246 686 246.7C731.7 247.3 777.3 246.7 823 248.8C868.7 251 914.3 256 937.2 258.5L960 261L960 301L937.2 301C914.3 301 868.7 301 823 301C777.3 301 731.7 301 686 301C640.3 301 594.7 301 548.8 301C503 301 457 301 411.2 301C365.3 301 319.7 301 274 301C228.3 301 182.7 301 137 301C91.3 301 45.7 301 22.8 301L0 301Z" fill="#1057a5"></path><path d="M0 262L22.8 265.7C45.7 269.3 91.3 276.7 137 277C182.7 277.3 228.3 270.7 274 267.7C319.7 264.7 365.3 265.3 411.2 268.5C457 271.7 503 277.3 548.8 278.5C594.7 279.7 640.3 276.3 686 276.3C731.7 276.3 777.3 279.7 823 279.5C868.7 279.3 914.3 275.7 937.2 273.8L960 272L960 301L937.2 301C914.3 301 868.7 301 823 301C777.3 301 731.7 301 686 301C640.3 301 594.7 301 548.8 301C503 301 457 301 411.2 301C365.3 301 319.7 301 274 301C228.3 301 182.7 301 137 301C91.3 301 45.7 301 22.8 301L0 301Z" fill="#00428c"></path></svg>